<svg xmlns="http://www.w3.org/2000/svg" width="324" height="128" fill="none" viewBox="0 0 324 128">
  <path fill="url(#a)" d="m80.955 50.27-.126-12.499c-8.024.08-15.82 2.859-21.39 7.615L57.946 46.6l-1.516-1.185c-5.765-4.643-13.516-7.265-21.54-7.185l.126 12.5c.034 3.4 1.27 6.587 3.303 9.267-1.979 2.72-3.15 5.932-3.116 9.331l.126 12.5c8.024-.08 15.82-2.859 21.39-7.615L58.213 73c-3.935-2.26-6.384-6.336-6.43-10.936l-.044-4.4c-.045-4.5 2.32-8.723 6.208-11.062 3.935 2.26 6.385 6.436 6.43 10.936l.045 4.4c.045 4.5-2.32 8.723-6.209 11.062l1.517 1.185c5.764 4.643 13.515 7.265 21.54 7.185l-.126-12.5c-.035-3.4-1.27-6.587-3.304-9.267 1.98-2.72 3.15-5.932 3.116-9.331Z"/>
  <path fill="#6F71E3" d="M126.54 46.476V73h-5.32V55.748L114.114 73h-4.028l-7.144-17.252V73h-5.32V46.476h6.042l8.436 19.722 8.436-19.722h6.004Zm25.97 15.542c0 .76-.051 1.444-.152 2.052h-15.39c.126 1.52.658 2.71 1.596 3.572.937.861 2.09 1.292 3.458 1.292 1.976 0 3.382-.849 4.218-2.546h5.738c-.608 2.027-1.774 3.699-3.496 5.016-1.723 1.292-3.838 1.938-6.346 1.938-2.027 0-3.851-.443-5.472-1.33-1.596-.912-2.85-2.191-3.762-3.838-.887-1.647-1.33-3.547-1.33-5.7 0-2.179.443-4.091 1.33-5.738.886-1.647 2.128-2.913 3.724-3.8s3.432-1.33 5.51-1.33c2.001 0 3.787.43 5.358 1.292a8.916 8.916 0 0 1 3.686 3.686c.886 1.57 1.33 3.382 1.33 5.434Zm-5.51-1.52c-.026-1.368-.52-2.457-1.482-3.268-.963-.836-2.141-1.254-3.534-1.254-1.318 0-2.432.405-3.344 1.216-.887.785-1.432 1.887-1.634 3.306H147Zm22.199-8.854c2.508 0 4.535.798 6.08 2.394 1.545 1.57 2.318 3.775 2.318 6.612V73h-5.32V61.372c0-1.672-.418-2.951-1.254-3.838-.836-.912-1.976-1.368-3.42-1.368-1.469 0-2.635.456-3.496 1.368-.836.887-1.254 2.166-1.254 3.838V73h-5.32V51.948h5.32v2.622a7.213 7.213 0 0 1 2.698-2.128c1.115-.532 2.331-.798 3.648-.798Zm20.791 4.674v10.184c0 .71.165 1.229.494 1.558.355.304.937.456 1.748.456h2.47V73h-3.344c-4.484 0-6.726-2.179-6.726-6.536V56.318h-2.508v-4.37h2.508v-5.206h5.358v5.206h4.712v4.37h-4.712Zm19.026 17.024c-2.026 0-3.85-.443-5.472-1.33-1.621-.912-2.9-2.191-3.838-3.838-.912-1.647-1.368-3.547-1.368-5.7s.469-4.053 1.406-5.7c.963-1.647 2.268-2.913 3.914-3.8 1.647-.912 3.484-1.368 5.51-1.368 2.027 0 3.864.456 5.51 1.368a9.64 9.64 0 0 1 3.876 3.8c.963 1.647 1.444 3.547 1.444 5.7s-.494 4.053-1.482 5.7a10.093 10.093 0 0 1-3.952 3.838c-1.646.887-3.496 1.33-5.548 1.33Zm0-4.636c.963 0 1.862-.228 2.698-.684.862-.481 1.546-1.19 2.052-2.128.507-.937.76-2.077.76-3.42 0-2.001-.532-3.534-1.596-4.598-1.038-1.09-2.318-1.634-3.838-1.634s-2.799.545-3.838 1.634c-1.013 1.064-1.52 2.597-1.52 4.598s.494 3.547 1.482 4.636c1.014 1.064 2.28 1.596 3.8 1.596Zm21.345-13.49a7.523 7.523 0 0 1 2.66-2.622c1.114-.633 2.381-.95 3.8-.95v5.586h-1.406c-1.672 0-2.939.393-3.8 1.178-.836.785-1.254 2.153-1.254 4.104V73h-5.32V51.948h5.32v3.268Zm9.815 7.182c0-2.128.418-4.015 1.254-5.662.861-1.647 2.014-2.913 3.458-3.8 1.469-.887 3.103-1.33 4.902-1.33 1.571 0 2.939.317 4.104.95 1.191.633 2.141 1.431 2.85 2.394v-3.002h5.358V73h-5.358v-3.078c-.684.988-1.634 1.811-2.85 2.47-1.191.633-2.571.95-4.142.95-1.773 0-3.395-.456-4.864-1.368-1.444-.912-2.597-2.191-3.458-3.838-.836-1.672-1.254-3.585-1.254-5.738Zm16.568.076c0-1.292-.253-2.394-.76-3.306-.507-.937-1.191-1.647-2.052-2.128a5.378 5.378 0 0 0-2.774-.76c-.988 0-1.9.24-2.736.722-.836.481-1.52 1.19-2.052 2.128-.507.912-.76 2.001-.76 3.268s.253 2.381.76 3.344c.532.937 1.216 1.66 2.052 2.166a5.31 5.31 0 0 0 2.736.76c.988 0 1.913-.24 2.774-.722a5.533 5.533 0 0 0 2.052-2.128c.507-.937.76-2.052.76-3.344Z"/>
  <defs>
    <linearGradient id="a" x1="57.86" x2="58.296" y1="38.001" y2="81.599" gradientUnits="userSpaceOnUse">
      <stop stop-color="#9333EA"/>
      <stop offset=".985" stop-color="#25EBD4"/>
    </linearGradient>
  </defs>
</svg>
