<svg xmlns="http://www.w3.org/2000/svg" width="48" height="43" fill="none" viewBox="0 0 48 43">
  <path fill="url(#a)" d="M46.955 12.521 46.83.706c-8.024.076-15.82 2.702-21.39 7.198l-1.493 1.148-1.516-1.12C16.665 3.543 8.914 1.064.89 1.14l.126 11.816c.034 3.214 1.27 6.227 3.303 8.76-1.979 2.572-3.15 5.608-3.116 8.822l.126 11.816c8.024-.076 15.82-2.702 21.39-7.198l1.493-1.149c-3.935-2.137-6.384-5.99-6.43-10.338l-.044-4.16c-.045-4.253 2.32-8.246 6.208-10.457 3.935 2.137 6.385 6.085 6.43 10.338l.045 4.16c.045 4.253-2.32 8.246-6.209 10.457l1.517 1.12c5.765 4.389 13.515 6.868 21.54 6.792l-.126-11.816c-.035-3.214-1.27-6.227-3.304-8.76 1.98-2.572 3.15-5.608 3.116-8.822Z"/>
  <defs>
    <linearGradient id="a" x1="23.86" x2="24.25" y1=".923" y2="42.137" gradientUnits="userSpaceOnUse">
      <stop stop-color="#9333EA"/>
      <stop offset=".985" stop-color="#25EBD4"/>
    </linearGradient>
  </defs>
</svg>
